<?xml version="1.0" encoding="UTF-8" standalone="no"?>
<svg
   xmlns:dc="http://purl.org/dc/elements/1.1/"
   xmlns:cc="http://creativecommons.org/ns#"
   xmlns:rdf="http://www.w3.org/1999/02/22-rdf-syntax-ns#"
   xmlns:svg="http://www.w3.org/2000/svg"
   xmlns="http://www.w3.org/2000/svg"
   xmlns:sodipodi="http://sodipodi.sourceforge.net/DTD/sodipodi-0.dtd"
   xmlns:inkscape="http://www.inkscape.org/namespaces/inkscape"
   version="1.1"
   id="svg833"
   width="224.37581"
   height="147.97743"
   viewBox="0 0 224.37581 147.97743"
   sodipodi:docname="Bike.svg"
   inkscape:version="1.0 (4035a4fb49, 2020-05-01)">
  <metadata
     id="metadata839">
    <rdf:RDF>
      <cc:Work
         rdf:about="">
        <dc:format>image/svg+xml</dc:format>
        <dc:type
           rdf:resource="http://purl.org/dc/dcmitype/StillImage" />
        <dc:title />
      </cc:Work>
    </rdf:RDF>
  </metadata>
  <defs
     id="defs837" />
  <sodipodi:namedview
     inkscape:document-rotation="0"
     pagecolor="#ffffff"
     bordercolor="#666666"
     borderopacity="1"
     objecttolerance="10"
     gridtolerance="10"
     guidetolerance="10"
     inkscape:pageopacity="0"
     inkscape:pageshadow="2"
     inkscape:window-width="1920"
     inkscape:window-height="1017"
     id="namedview835"
     showgrid="false"
     inkscape:zoom="2.4163436"
     inkscape:cx="100.41501"
     inkscape:cy="102.41837"
     inkscape:window-x="-8"
     inkscape:window-y="-8"
     inkscape:window-maximized="1"
     inkscape:current-layer="g841" />
  <g
     inkscape:groupmode="layer"
     inkscape:label="Image"
     id="g841"
     transform="translate(-2.5716735,-34.247448)">
    <path
       style="fill:#00e687;fill-opacity:1"
       d="m 42.276544,181.51433 c -14.09155,-1.76675 -28.84568,-12.46168 -35.0100604,-25.37797 -12.18139,-25.5238 0.25594,-55.58688 26.7464504,-64.650599 8.2189,-2.81209 22.14123,-3.03376 29.12708,-0.46376 2.40665,0.88537 4.73657,1.60977 5.1776,1.60977 0.44103,0 2.43966,-2.6961 4.44141,-5.99133 l 3.63953,-5.991325 -2.72606,-5.00868 c -2.69806,-4.95722 -2.7763,-5.00867 -7.61679,-5.00867 -8.71971,0 -14.12475,-4.77317 -14.12475,-12.4735 0,-11.42124 7.90666,-14.453605 28.83334,-11.058173 16.11931,2.615419 20.823706,5.273469 20.297316,11.468273 -0.37187,4.3764 -4.563456,7.45786 -12.340886,9.07244 l -5.4202,1.12523 2.73188,4.74704 c 1.50254,2.61087 8.58189,14.939245 15.731886,27.396374 7.15,12.45713 13.22875,22.66576 13.50834,22.68583 0.45905,0.0329 22.76166,-35.095619 25.72189,-40.514244 1.09898,-2.01166 0.55868,-3.40935 -5.06429,-13.10059 l -6.29452,-10.84868 -5.53213,-0.5 c -6.49681,-0.58719 -8.83929,-2.190754 -8.83929,-6.051016 0,-4.46126 2.3126,-5.944835 9.32143,-5.97986 9.46228,-0.04729 20.48195,-1.739908 23.69878,-3.640135 1.59226,-0.940572 3.39451,-2.916001 4.005,-4.389841 2.28899,-5.526132 10.20914,-5.837937 11.56014,-0.455106 1.51478,6.035367 -6.74577,15.347079 -15.63586,17.625542 -2.72222,0.697683 -4.94949,1.706916 -4.94949,2.242736 0,0.53583 4.34432,8.50634 9.65404,17.71225 l 9.65404,16.738025 4.09596,-1.5374 c 2.476,-0.92935 7.65548,-1.57303 13.09596,-1.62748 11.29308,-0.11304 20.01502,2.64326 28.46563,8.9957 33.04611,24.841209 20.03658,76.450669 -21.01695,83.375249 -24.565,4.14342 -49.31805,-14.24538 -52.84584,-39.25866 -2.02087,-14.32863 2.91792,-29.47676 12.75832,-39.13204 4.46551,-4.381499 4.86503,-5.124809 3.89673,-7.249999 -0.59341,-1.30238 -1.39882,-2.36796 -1.78982,-2.36796 -0.39099,0 -7.31145,10.533639 -15.37879,23.408099 -8.06735,12.87445 -15.36202,23.67445 -16.21038,24 -0.84836,0.32554 -6.19112,0.5919 -11.87279,0.5919 H 95.440084 l -0.68634,4.06242 c -2.75198,16.28883 -20.46954,33.236 -37.00473,35.3957 -2.7416,0.35809 -5.88472,0.7831 -6.98472,0.94447 -1.1,0.16136 -4.91949,-0.0727 -8.48775,-0.52003 z m 20.98775,-14.49448 c 7.26715,-3.28948 13.56989,-9.50844 17.11559,-16.88808 1.58556,-3.3 2.88318,-6.5625 2.88362,-7.25 5.5e-4,-0.8697 -1.94378,-1.25 -6.39081,-1.25 -5.97111,0 -6.43256,0.16326 -7.01445,2.48166 -0.9266,3.69191 -6.5325,9.58503 -11.08538,11.65336 -2.38869,1.08516 -6.37851,1.82993 -9.87325,1.84302 -11.07265,0.0415 -19.50026,-6.94439 -21.78226,-18.05587 -2.90603,-14.14998 7.63852,-26.37528 22.62753,-26.23426 l 6.08617,0.0572 3.21662,-4.86096 c 1.76914,-2.67349 3.21662,-5.04626 3.21662,-5.27279 0,-0.22654 -2.30329,-0.96443 -5.11843,-1.63977 -15.34073,-3.680189 -31.91161,4.21883 -38.98273,18.58233 -14.3500104,29.149 15.55844,60.20668 45.10116,46.83416 z m 131.486936,0.24653 c 6.95956,-3.18619 13.96346,-10.22856 17.34288,-17.43811 2.23736,-4.77314 2.67018,-7.07429 2.67018,-14.1965 0,-10.38583 -2.85573,-17.40836 -9.97368,-24.52632 -6.71573,-6.71573 -14.16586,-9.85779 -23.52632,-9.92213 -4.125,-0.0284 -8.71287,0.28834 -10.19527,0.70377 l -2.69527,0.75531 3.06026,5.32802 3.06026,5.32802 h 5.725 c 15.39485,0 25.94307,13.85257 21.68958,28.48407 -2.89944,9.97369 -11.14244,16.12488 -21.64456,16.15184 -8.62488,0.0221 -16.27865,-4.85975 -20.38584,-13.00292 -3.24604,-6.43582 -1.72207,-17.97514 3.1014,-23.48334 1.31477,-1.50141 1.1664,-2.23201 -1.37059,-6.74898 -1.56473,-2.78592 -3.36914,-5.06576 -4.0098,-5.06632 -1.69736,-0.001 -8.10754,9.10235 -9.81329,13.93698 -2.53196,7.17632 -2.86013,13.18821 -1.09882,20.12938 5.39139,21.2469 28.44315,32.5499 48.06388,23.56723 z M 82.804794,126.93714 c -1.13314,-4.51479 -3.14727,-8.59515 -6.48048,-13.12859 -3.60442,-4.90231 -4.2569,-4.73683 -7.89103,2.00127 l -2.331,4.32195 2.6665,4.75 2.66649,4.75 h 6.02292 6.02291 z m 21.292826,1.73417 c -0.78069,-2.24946 -20.387096,-35.994429 -20.925856,-36.015919 -0.32589,-0.013 -1.37726,1.43888 -2.33638,3.22638 l -1.74384,3.25 4.11708,4.449649 c 4.7978,5.18536 10.56063,16.16081 11.54512,21.98793 0.68351,4.04566 0.70489,4.06242 5.18178,4.06242 2.472486,0 4.345436,-0.43221 4.162096,-0.96046 z"
       id="path881" />
  </g>
</svg>
