<?xml version="1.0" encoding="UTF-8" standalone="no"?>
<svg
   xmlns:dc="http://purl.org/dc/elements/1.1/"
   xmlns:cc="http://creativecommons.org/ns#"
   xmlns:rdf="http://www.w3.org/1999/02/22-rdf-syntax-ns#"
   xmlns:svg="http://www.w3.org/2000/svg"
   xmlns="http://www.w3.org/2000/svg"
   xmlns:sodipodi="http://sodipodi.sourceforge.net/DTD/sodipodi-0.dtd"
   xmlns:inkscape="http://www.inkscape.org/namespaces/inkscape"
   sodipodi:docname="Car.svg"
   inkscape:version="1.0 (4035a4fb49, 2020-05-01)"
   id="svg8"
   version="1.1"
   viewBox="0 0 59.489582 33.349152"
   height="33.349152mm"
   width="59.489582mm">
  <defs
     id="defs2" />
  <sodipodi:namedview
     inkscape:window-maximized="1"
     inkscape:window-y="-8"
     inkscape:window-x="-8"
     inkscape:window-height="1017"
     inkscape:window-width="1920"
     showgrid="false"
     inkscape:document-rotation="0"
     inkscape:current-layer="layer1"
     inkscape:document-units="mm"
     inkscape:cy="39.934163"
     inkscape:cx="186.53444"
     inkscape:zoom="2.828978"
     inkscape:pageshadow="2"
     inkscape:pageopacity="0.0"
     borderopacity="1.0"
     bordercolor="#666666"
     pagecolor="#ffffff"
     id="base" />
  <metadata
     id="metadata5">
    <rdf:RDF>
      <cc:Work
         rdf:about="">
        <dc:format>image/svg+xml</dc:format>
        <dc:type
           rdf:resource="http://purl.org/dc/dcmitype/StillImage" />
        <dc:title></dc:title>
      </cc:Work>
    </rdf:RDF>
  </metadata>
  <g
     transform="translate(-51.56993,-118.04541)"
     id="layer1"
     inkscape:groupmode="layer"
     inkscape:label="Livello 1">
    <path
       id="path847"
       d="m 62.625607,151.16002 c -2.21114,-0.62133 -4.1655,-2.37698 -4.93639,-4.43449 -0.23449,-0.62586 -0.42245,-0.70286 -2.03096,-0.83198 -2.01586,-0.16181 -2.91617,-0.67542 -3.62677,-2.069 -0.38523,-0.75549 -0.46243,-1.63746 -0.46155,-5.27286 5.9e-4,-2.40109 0.12739,-4.82054 0.28178,-5.37654 0.34205,-1.23178 1.92423,-3.04307 3.08128,-3.52745 0.46827,-0.19603 1.3017,-0.35692 1.85208,-0.35753 l 1.00069,-10e-4 1.82542,-3.61722 c 2.11895,-4.19887 3.28518,-5.53409 5.92668,-6.78548 l 1.7729,-0.83989 h 8.99583 c 12.01423,0 11.36731,-0.26398 17.4593,7.12446 l 3.39733,4.12033 h 3.253943 c 2.63451,0 3.53043,0.10345 4.70629,0.54339 2.02019,0.75585 3.91536,2.54022 4.96719,4.67679 0.80833,1.64196 0.86499,1.94473 0.9499,5.07599 0.10028,3.69801 -0.16328,4.62761 -1.61386,5.69232 -0.6488,0.47621 -1.21041,0.56 -4.28831,0.63981 l -3.54175,0.0918 -0.5447,1.12521 c -1.767223,3.6506 -6.060653,5.2395 -9.740203,3.60462 -1.5748,-0.69972 -3.30742,-2.4828 -3.7677,-3.87747 l -0.29826,-0.90374 h -7.76417 -7.76417 l -0.29826,0.90374 c -1.03767,3.14415 -5.36673,5.2592 -8.79356,4.29626 z m 3.47615,-3.73528 c 0.41201,-0.21306 1.06094,-0.75797 1.44207,-1.21093 1.3418,-1.59463 0.71577,-4.44363 -1.19335,-5.43087 -2.66845,-1.37991 -5.83016,0.75328 -5.43899,3.66966 0.33946,2.53087 3.04624,4.08086 5.19027,2.97214 z m 29.89749,-0.0761 c 3.45376,-1.76112 2.29848,-6.93931 -1.56008,-6.99256 -3.80273,-0.0525 -5.18108,4.98107 -1.8871,6.89145 1.16845,0.67765 2.25405,0.70949 3.44718,0.10111 z m -38.06739,-6.44518 c 2.6385,-5.6333 11.05279,-5.51745 13.39739,0.18447 l 0.47943,1.16594 7.68591,0.001 7.68591,10e-4 0.32327,-0.89398 c 1.31443,-3.635 5.54704,-5.55104 9.37852,-4.24553 1.68418,0.57386 3.437133,2.18826 4.133333,3.80662 l 0.57339,1.33276 h 2.90307 2.90306 v -1.98438 -1.98437 h -2.36625 c -2.14528,0 -2.40471,-0.0549 -2.77813,-0.58804 -0.56179,-0.80208 -0.51704,-1.68804 0.11729,-2.32238 0.4028,-0.4028 0.88195,-0.52917 2.00643,-0.52917 1.81235,0 1.8024,-0.37194 -0.0352,-1.31765 l -1.2955,-0.66672 H 79.663787 56.283837 l -0.50581,0.62462 c -0.44905,0.55454 -0.50581,1.08152 -0.50581,4.69636 v 4.07173 h 1.01311 c 0.95967,0 1.04652,-0.0713 1.64653,-1.3524 z m 12.94901,-15.31283 c 1.01962,-2.03535 1.85385,-3.76176 1.85385,-3.83646 0,-0.25546 -3.73256,-0.13628 -4.89443,0.15628 -1.79696,0.45248 -3.16543,1.81656 -4.51178,4.4973 -0.64742,1.28908 -1.17712,2.46523 -1.17712,2.61365 0,0.16959 1.27743,0.26987 3.43782,0.26987 h 3.43781 z m 21.11729,3.21998 c -1.60014,-2.22463 -4.96873,-5.91871 -5.86612,-6.43295 -0.99443,-0.56984 -1.46084,-0.63518 -5.11555,-0.71665 l -4.02136,-0.0896 -1.86562,3.72413 c -1.02609,2.04827 -1.86562,3.78524 -1.86562,3.85994 0,0.0747 4.293,0.13582 9.54,0.13582 9.16958,0 9.52658,-0.0187 9.19427,-0.48066 z"
       style="fill:#00e687;stroke-width:0.264583;fill-opacity:1" />
  </g>
</svg>
