<?xml version="1.0" encoding="UTF-8" standalone="no"?>
<svg
   xmlns:dc="http://purl.org/dc/elements/1.1/"
   xmlns:cc="http://creativecommons.org/ns#"
   xmlns:rdf="http://www.w3.org/1999/02/22-rdf-syntax-ns#"
   xmlns:svg="http://www.w3.org/2000/svg"
   xmlns="http://www.w3.org/2000/svg"
   xmlns:sodipodi="http://sodipodi.sourceforge.net/DTD/sodipodi-0.dtd"
   xmlns:inkscape="http://www.inkscape.org/namespaces/inkscape"
   version="1.1"
   id="svg883"
   width="225.96664"
   height="127.86444"
   viewBox="0 0 225.96664 127.86444"
   sodipodi:docname="Car.svg"
   inkscape:version="1.0 (4035a4fb49, 2020-05-01)">
  <metadata
     id="metadata889">
    <rdf:RDF>
      <cc:Work
         rdf:about="">
        <dc:format>image/svg+xml</dc:format>
        <dc:type
           rdf:resource="http://purl.org/dc/dcmitype/StillImage" />
        <dc:title />
      </cc:Work>
    </rdf:RDF>
  </metadata>
  <defs
     id="defs887" />
  <sodipodi:namedview
     inkscape:document-rotation="0"
     pagecolor="#ffffff"
     bordercolor="#666666"
     borderopacity="1"
     objecttolerance="10"
     gridtolerance="10"
     guidetolerance="10"
     inkscape:pageopacity="0"
     inkscape:pageshadow="2"
     inkscape:window-width="1920"
     inkscape:window-height="1017"
     id="namedview885"
     showgrid="false"
     inkscape:zoom="3.4162964"
     inkscape:cx="100.60846"
     inkscape:cy="64.048485"
     inkscape:window-x="-8"
     inkscape:window-y="-8"
     inkscape:window-maximized="1"
     inkscape:current-layer="g891" />
  <g
     inkscape:groupmode="layer"
     inkscape:label="Image"
     id="g891"
     transform="translate(0.52970516,-48.451515)">
    <path
       style="fill:#00e687;stroke:none;fill-opacity:1"
       d="m 135.29574,155.10002 c 3.352,18.573 26.913,26.056 41.996,16.441 6.031,-3.845 7.805,-12.022 13.279,-15.413 5.742,-3.558 16.171,-0.226 22.725,-1.496 14.067,-2.728 12.949,-19.34 11.829,-30.532 -1.536,-15.359 -12.856,-29.87799 -28.829,-31.81599 -6.798,-0.824 -16.754,2.094 -22.91,-1.212 -13.25,-7.1143 -19.631,-26.3009 -32.09,-35.1826 -16.086,-11.4671 -42.356501,-6.7894 -61,-6.7894 -8.3166,0 -17.0726,-0.552 -25,2.4676 -18.4598,7.0316 -20.1763,23.0194 -30.3519,37.3844 -4.01,5.661 -14.0714,3.996 -19.4343699,10.163 -8.17235,9.39799 -5.23228991,25.43899 -5.21372991,36.98499 0.009,5.336 0.17087,10.753 4.22453991,14.772 4.9958,4.954 12.6032599,1.795 17.2769599,5.831 10.0298,8.662 12.9836,20.578 29.4985,19.209 7.3953,-0.613 14.876,-4.162 19.6705,-9.827 2.4987,-2.953 3.8983,-8.761 7.554,-10.382 4.493,-1.991 11.9327,-0.603 16.775499,-0.603 h 40.000001 m -55,-91.99999 c -1.9271,6.6895 -8.5644,25.504 -15.213,28.397 -6.4354,2.799 -17.8041,0.603 -24.787,0.603 3.9866,-22.3646 19.7243,-29 40,-29 m 73,29 h -71 c 2.0349,-7.0637 8.0516,-23.9286 14.390399,-27.9722 3.627601,-2.3141 10.479601,-1.0278 14.609601,-1.0278 19,0 34.841,10.4891 42,29 m 52,20.99999 c -5.535,0.001 -23.089,5.093 -10.891,11.972 4.367,2.463 12.013,1.028 16.891,1.028 v 15 c -5.753,0 -15.36,1.866 -20.61,-0.603 -5.25,-2.47 -8.136,-11.864 -13.39,-15.608 -15.755,-11.226 -36.902,-1.452 -42,16.211 h -59 c -5.0414,-17.466 -26.2623,-27.575 -42,-16.362 -8.2421,5.873 -9.097,16.323 -20,16.362 0,-7.798 -3.7039,-29.097 3.2284,-34.142 8.1427,-5.926 29.9538,-1.858 39.7716,-1.858 h 106 c 11.911,0 34.811,-4.184 42,8 m -159.9961,21.419 c 18.3952,-4.631 25.4186,22.792 6.9961,27.044 -16.8555,3.89 -23.7231,-22.833 -6.9961,-27.044 m 112.9961,-0.025 c 17.924,-4.118 25.108,22.763 7,27.072 -17.072,4.062 -24.191,-23.122 -7,-27.072 z"
       id="path1458" />
  </g>
</svg>
