<?xml version="1.0" encoding="UTF-8" standalone="no"?>
<svg
   xmlns:dc="http://purl.org/dc/elements/1.1/"
   xmlns:cc="http://creativecommons.org/ns#"
   xmlns:rdf="http://www.w3.org/1999/02/22-rdf-syntax-ns#"
   xmlns:svg="http://www.w3.org/2000/svg"
   xmlns="http://www.w3.org/2000/svg"
   xmlns:sodipodi="http://sodipodi.sourceforge.net/DTD/sodipodi-0.dtd"
   xmlns:inkscape="http://www.inkscape.org/namespaces/inkscape"
   inkscape:version="1.0 (4035a4fb49, 2020-05-01)"
   sodipodi:docname="Motorcycle.svg"
   viewBox="0 0 220.02913 174.19644"
   height="174.19644"
   width="220.02913"
   id="svg1460"
   version="1.1">
  <metadata
     id="metadata1466">
    <rdf:RDF>
      <cc:Work
         rdf:about="">
        <dc:format>image/svg+xml</dc:format>
        <dc:type
           rdf:resource="http://purl.org/dc/dcmitype/StillImage" />
        <dc:title></dc:title>
      </cc:Work>
    </rdf:RDF>
  </metadata>
  <defs
     id="defs1464" />
  <sodipodi:namedview
     inkscape:current-layer="g1468"
     inkscape:window-maximized="1"
     inkscape:window-y="-8"
     inkscape:window-x="-8"
     inkscape:cy="90.291031"
     inkscape:cx="95.410701"
     inkscape:zoom="3.3813023"
     showgrid="false"
     id="namedview1462"
     inkscape:window-height="1017"
     inkscape:window-width="1920"
     inkscape:pageshadow="2"
     inkscape:pageopacity="0"
     guidetolerance="10"
     gridtolerance="10"
     objecttolerance="10"
     borderopacity="1"
     bordercolor="#666666"
     pagecolor="#ffffff" />
  <g
     transform="translate(-4.6680495,-22.208969)"
     id="g1468"
     inkscape:label="Image"
     inkscape:groupmode="layer">
    <path
       id="path2033"
       d="m 36.268911,195.96424 c -12.72486,-1.9712 -20.94519,-11.66168 -21.71693,-25.60087 -0.39688,-7.1684 7.1e-4,-8.55806 5.59935,-19.57081 0.20971,-0.4125 -0.22472,-0.75 -0.96539,-0.75 -0.74068,0 -3.65922,-1.55735 -6.48565,-3.46078 -3.8744403,-2.6092 -5.5564703,-4.55399 -6.8356603,-7.90351 -1.59427,-4.17453 -1.59461,-4.79567 -0.006,-10.28922 2.31227,-7.99422 9.6280803,-21.845 14.5761203,-27.59649 l 4.08645,-4.750001 h 31.19969 c 26.61969,0 31.52594,0.22852 33.4222,1.5567 3.29455,2.3076 2.8269,6.872571 -1.69592,16.554881 -2.15513,4.61363 -4.2223,10.03375 -4.59371,12.04471 -1.39702,7.56402 4.89069,9.53324 27.434179,8.59198 21.07159,-0.8798 31.38987,-5.92743 40.6786,-19.89967 4.54397,-6.83511 4.81213,-7.60561 4.64224,-13.33846 -0.22212,-7.495121 -3.35112,-24.013469 -6.82198,-36.014016 -3.2908,-11.377975 -8.31542,-24.496125 -9.3827,-24.496125 -0.44904,0 -3.89669,1.8 -7.66145,4 -7.64095,4.465113 -12.09205,5.077067 -14.84029,2.040295 -2.37711,-2.626672 -1.30926,-6.795982 2.06961,-8.080628 1.40263,-0.533277 7.98115,-2.34069 14.61894,-4.016475 9.16023,-2.312604 12.50645,-3.603386 13.88513,-5.356102 5.19582,-6.605413 28.24506,-10.217131 30.39283,-4.762427 1.33011,3.378087 1.70324,15.769946 0.5974,19.840072 -1.03568,3.811883 -1.47077,4.222046 -5.13535,4.841172 -5.62393,0.950157 -13.55163,-0.272767 -19.72241,-3.042374 -4.72497,-2.120683 -5.15765,-2.173288 -4.27255,-0.519452 2.38669,4.45956 15.30127,12.231995 21.93969,13.204049 6.59086,0.96509 17.10549,31.67145 18.74258,54.734801 l 0.62822,8.85052 6.61096,0.55424 c 3.63603,0.30483 9.1516,1.50481 12.25682,2.66662 7.07402,2.64673 15.08075,9.43652 14.65403,12.42678 -0.2803,1.96428 -0.99495,2.14012 -9.79308,2.40962 -5.21989,0.15989 -9.92239,0.72239 -10.45,1.25 -0.61239,0.61239 -0.33012,0.95929 0.78055,0.95929 2.77837,0 8.88788,3.54064 12.35894,7.16237 12.73344,13.28618 9.01519,35.44868 -7.28531,43.42377 -6.5055,3.18284 -16.46153,3.60774 -22.68575,0.96816 -5.11296,-2.16832 -11.42772,-8.04675 -13.94997,-12.98609 -2.77279,-5.42995 -3.45874,-15.65234 -1.44728,-21.56821 l 1.53004,-4.5 -5.69641,6.22036 c -6.67333,7.28713 -9.81839,8.31747 -11.97421,3.92281 -0.77078,-1.57125 -1.42583,-5.44789 -1.45566,-8.61474 l -0.0542,-5.75792 -8.07211,5.4965 -8.07212,5.49649 -33.51788,-0.50947 c -18.434829,-0.28021 -34.202049,-0.798 -35.038259,-1.15063 -1.29892,-0.54776 -1.46633,0.4294 -1.14927,6.70817 0.46556,9.21934 -2.09766,15.83658 -8.37612,21.62386 -6.83527,6.30053 -14.08847,8.45212 -23.55127,6.98625 z m 14.7537,-17.2441 c 3.78954,-4.1351 4.8221,-7.31202 3.92712,-12.08271 -1.13907,-6.07173 -3.7917,-8.28057 -11.50714,-9.58194 -7.68324,-1.29595 -9.53866,-0.78361 -12.9728,3.5822 -2.37396,3.01799 -3.59209,8.32339 -2.71419,11.82122 0.76539,3.04955 5.27848,8.48472 8.02879,9.66916 1.14486,0.49304 4.30365,0.73343 7.01954,0.5342 4.15608,-0.30489 5.45745,-0.9291 8.21868,-3.94213 z m 153.281679,2.49515 c 9.62446,-5.16165 9.0711,-19.29175 -0.95827,-24.46926 -9.1272,-4.71178 -21.26899,3.96645 -19.63523,14.03409 1.61076,9.92599 11.85952,15.11926 20.5935,10.43517 z M 25.820501,83.588014 c -3.27684,-3.276837 -3.29475,-8.456652 -0.0423,-12.239691 l 2.41222,-2.805764 30.33778,-0.269636 c 28.79103,-0.255888 30.5021,-0.168248 33.56093,1.718981 5.12957,3.164826 5.63679,9.774115 1.07617,14.022978 -2.09041,1.94752 -3.41603,2.027677 -33.53334,2.027677 h -31.3569 z"
       style="fill:#00e687;fill-opacity:1" />
  </g>
</svg>
