<?xml version="1.0" encoding="UTF-8" standalone="no"?>
<svg
   xmlns:dc="http://purl.org/dc/elements/1.1/"
   xmlns:cc="http://creativecommons.org/ns#"
   xmlns:rdf="http://www.w3.org/1999/02/22-rdf-syntax-ns#"
   xmlns:svg="http://www.w3.org/2000/svg"
   xmlns="http://www.w3.org/2000/svg"
   xmlns:sodipodi="http://sodipodi.sourceforge.net/DTD/sodipodi-0.dtd"
   xmlns:inkscape="http://www.inkscape.org/namespaces/inkscape"
   inkscape:version="1.0 (4035a4fb49, 2020-05-01)"
   sodipodi:docname="Scooter.svg"
   viewBox="0 0 224.51746 202.83533"
   height="202.83533"
   width="224.51746"
   id="svg2035"
   version="1.1">
  <metadata
     id="metadata2041">
    <rdf:RDF>
      <cc:Work
         rdf:about="">
        <dc:format>image/svg+xml</dc:format>
        <dc:type
           rdf:resource="http://purl.org/dc/dcmitype/StillImage" />
        <dc:title></dc:title>
      </cc:Work>
    </rdf:RDF>
  </metadata>
  <defs
     id="defs2039" />
  <sodipodi:namedview
     inkscape:current-layer="g2043"
     inkscape:window-maximized="1"
     inkscape:window-y="-8"
     inkscape:window-x="-8"
     inkscape:cy="106.42054"
     inkscape:cx="108.29922"
     inkscape:zoom="1.6906511"
     showgrid="false"
     id="namedview2037"
     inkscape:window-height="1017"
     inkscape:window-width="1920"
     inkscape:pageshadow="2"
     inkscape:pageopacity="0"
     guidetolerance="10"
     gridtolerance="10"
     objecttolerance="10"
     borderopacity="1"
     bordercolor="#666666"
     pagecolor="#ffffff" />
  <g
     transform="translate(0.79761931,-16.323393)"
     id="g2043"
     inkscape:label="Image"
     inkscape:groupmode="layer">
    <path
       id="path2608"
       d="M 18.106294,218.44902 C 9.617575,215.66378 3.028601,209.14643 0.66920397,201.20148 -1.264627,194.68956 -1.279449,192.00105 0.58404397,185.75489 5.038896,170.82289 22.742363,163.41209 36.761587,170.61071 c 5.693169,2.92334 10.765688,8.40859 12.424803,13.43576 0.722087,2.18794 1.71899,3.27692 2.999854,3.27692 1.884004,0 1.882995,-0.0941 -0.05637,-5.25 -1.304332,-3.46765 -3.424788,-6.51304 -6.245925,-8.97035 -8.872186,-7.72798 -9.771181,-8.70149 -9.771181,-10.58102 0,-1.0609 0.932661,-3.1146 2.07258,-4.56377 6.702362,-8.52067 24.03205,4.56597 29.16929,22.02741 l 2.16516,7.35935 41.436312,-0.26081 41.4363,-0.26081 1.19543,-4 c 2.67224,-8.94153 7.82593,-16.07785 16.26652,-22.52427 l 3.24159,-2.47573 -24.29343,-51.5 C 135.44114,77.998393 123.10608,51.812627 121.39128,48.132802 l -3.11783,-6.690592 -6.83034,2.913537 c -8.74613,3.730731 -12.520192,3.813047 -15.257762,0.332787 -5.22754,-6.645744 -2.03835,-9.438425 22.659642,-19.842379 11.12772,-4.687519 21.07954,-8.522762 22.11514,-8.522762 3.44806,0 7.15264,3.841809 7.15264,7.417593 0,4.00925 -1.77549,5.710325 -9.53399,9.134387 -3.2813,1.448142 -6.06294,2.725793 -6.1814,2.839225 -0.11846,0.113433 13.64679,29.640853 30.58945,65.616492 l 30.80484,65.41025 6.41055,1.06191 c 12.46678,2.06512 20.68516,9.3005 22.94867,20.20377 3.58476,17.26771 -10.26351,32.79385 -27.66052,31.0119 -19.69818,-2.01767 -29.87762,-24.66152 -18.28229,-40.66841 5.24097,-7.23495 3.26518,-8.31161 -2.92633,-1.59462 -4.48093,4.86123 -7.16898,10.31325 -7.16898,14.5404 0,4.05389 -1.96302,8.93694 -4.03944,10.04821 -1.13063,0.60509 -23.21257,0.97889 -57.82743,0.97889 H 49.247543 l -0.669861,2.11054 c -1.056644,3.3292 -7.442377,9.83731 -11.867288,12.09474 -4.379106,2.23405 -14.472637,3.27592 -18.6041,1.92035 z m 11.006474,-15.12563 c 1.104519,-0.7138 0.429186,-0.97341 -2.561439,-0.98469 -5.300874,-0.02 -8.438561,-2.82887 -8.438561,-7.55427 0,-5.25866 2.804243,-7.46104 9.5,-7.46104 3.025,0 5.5,-0.39873 5.5,-0.88606 0,-1.67009 -7.009542,-4.27146 -9.796873,-3.6358 -4.780595,1.09023 -9.203127,6.03699 -9.203127,10.29403 0,7.43855 9.399126,13.84739 15,10.22783 z M 203.1455,202.80646 c 6.37429,-3.29627 7.51026,-11.66736 2.29147,-16.88615 -3.24196,-3.24196 -3.97462,-2.75537 -1.89794,1.26049 2.47375,4.7837 2.0482,9.62422 -1.06112,12.07001 -4.6673,3.6713 -8.79197,1.95637 -12.61146,-5.2435 -2.18955,-4.12738 -2.2241,-4.14625 -2.55667,-1.39626 -0.18542,1.53321 0.50654,4.23221 1.53768,5.99776 3.19941,5.47815 8.69937,7.09284 14.29804,4.19765 z"
       style="fill:#00e687;fill-opacity:1" />
  </g>
</svg>
