<?xml version="1.0" encoding="UTF-8" standalone="no"?>
<svg
   xmlns:dc="http://purl.org/dc/elements/1.1/"
   xmlns:cc="http://creativecommons.org/ns#"
   xmlns:rdf="http://www.w3.org/1999/02/22-rdf-syntax-ns#"
   xmlns:svg="http://www.w3.org/2000/svg"
   xmlns="http://www.w3.org/2000/svg"
   xmlns:sodipodi="http://sodipodi.sourceforge.net/DTD/sodipodi-0.dtd"
   xmlns:inkscape="http://www.inkscape.org/namespaces/inkscape"
   sodipodi:docname="m_muvt_art.svg"
   inkscape:version="1.0 (4035a4fb49, 2020-05-01)"
   id="svg8"
   version="1.1"
   viewBox="0 0 33.208359 18.52619"
   height="18.52619mm"
   width="33.208359mm">
  <defs
     id="defs2">
    <style
       id="style833">.cls-1{isolation:isolate;}.cls-2{fill:#00e687;}</style>
  </defs>
  <sodipodi:namedview
     inkscape:window-maximized="1"
     inkscape:window-y="50"
     inkscape:window-x="-8"
     inkscape:window-height="1017"
     inkscape:window-width="1920"
     showgrid="false"
     inkscape:document-rotation="0"
     inkscape:current-layer="layer1"
     inkscape:document-units="mm"
     inkscape:cy="41.825372"
     inkscape:cx="67.279869"
     inkscape:zoom="4.0017561"
     inkscape:pageshadow="2"
     inkscape:pageopacity="0.0"
     borderopacity="1.0"
     bordercolor="#666666"
     pagecolor="#ffffff"
     id="base" />
  <metadata
     id="metadata5">
    <rdf:RDF>
      <cc:Work
         rdf:about="">
        <dc:format>image/svg+xml</dc:format>
        <dc:type
           rdf:resource="http://purl.org/dc/dcmitype/StillImage" />
        <dc:title></dc:title>
      </cc:Work>
    </rdf:RDF>
  </metadata>
  <g
     transform="translate(-71.21994,-99.815797)"
     id="layer1"
     inkscape:groupmode="layer"
     inkscape:label="Livello 1">
    <g
       transform="matrix(0.26458333,0,0,0.26458333,71.21994,99.820705)"
       id="g870">
      <g
         class="cls-1"
         id="text833">
        <g
           id="g845"
           class="cls-1">
          <path
             id="path837"
             d="m 83.08,26.7 19.59,-24 a 19.2,19.2 0 0 1 1.6,-1.6 4.6,4.6 0 0 1 3.21,-1.1 h 15.79 a 2.13,2.13 0 0 1 1.73,0.8 2.23,2.23 0 0 1 0.46,1.9 L 111.67,67.3 A 3.44,3.44 0 0 1 108.48,70 H 90.38 A 2.13,2.13 0 0 1 88.63,69.2 2.23,2.23 0 0 1 88.17,67.3 L 94,39.9 85.17,50.7 c -0.53,0.53 -1.13,1.08 -1.79,1.65 a 3.71,3.71 0 0 1 -2.5,0.85 h -7 a 2.52,2.52 0 0 1 -2.15,-0.85 6.81,6.81 0 0 1 -1,-1.65 l -4.35,-10.8 -5.8,27.4 a 3.21,3.21 0 0 1 -1.16,1.9 3.12,3.12 0 0 1 -2,0.8 H 39.27 A 2.16,2.16 0 0 1 37.52,69.2 2.22,2.22 0 0 1 37.08,67.3 L 50.88,2.7 A 3.18,3.18 0 0 1 52,0.8 3.17,3.17 0 0 1 54.08,0 h 15.8 a 3.23,3.23 0 0 1 2.79,1.1 8.35,8.35 0 0 1 1,1.6 z" />
        </g>
      </g>
      <rect
         rx="2.6300001"
         height="5.3099999"
         width="42.27"
         y="25.540001"
         x="17.629999"
         class="cls-2"
         id="rect839" />
      <rect
         rx="2.6300001"
         height="5.3099999"
         width="24.639999"
         y="57.119999"
         x="28.5"
         class="cls-2"
         id="rect841" />
      <rect
         rx="2.6300001"
         height="5.3099999"
         width="38.029999"
         y="41.330002"
         x="18.5"
         class="cls-2"
         id="rect843" />
      <rect
         rx="2.6300001"
         height="5.3099999"
         width="14.57"
         y="41.330002"
         x="1.66"
         class="cls-2"
         id="rect845" />
      <rect
         x="0"
         rx="2.6300001"
         height="5.3099999"
         width="7.8099999"
         y="57.119999"
         class="cls-2"
         id="rect847" />
      <rect
         rx="2.6300001"
         height="5.3099999"
         width="14.57"
         y="57.099998"
         x="10.87"
         class="cls-2"
         id="rect849" />
      <rect
         rx="2.6300001"
         height="5.3099999"
         width="24.639999"
         y="9.3199997"
         x="38.720001"
         class="cls-2"
         id="rect851" />
      <rect
         rx="2.6300001"
         height="5.3099999"
         width="7.8099999"
         y="9.3199997"
         x="28.950001"
         class="cls-2"
         id="rect853" />
      <rect
         rx="2.6300001"
         height="5.3099999"
         width="14.57"
         y="9.3000002"
         x="12.42"
         class="cls-2"
         id="rect855" />
    </g>
  </g>
</svg>
